<svg viewBox="0 0 1300 460" xmlns="http://www.w3.org/2000/svg" font-family="system-ui, -apple-system, 'Segoe UI', sans-serif">
<defs>
<marker id="a" viewBox="0 0 10 7" refX="9" refY="3.5" markerWidth="8" markerHeight="6" orient="auto"><path d="M0 0L10 3.5 0 7z" fill="#495057"/></marker>
<marker id="ab" viewBox="0 0 10 7" refX="9" refY="3.5" markerWidth="7" markerHeight="5" orient="auto"><path d="M0 0L10 3.5 0 7z" fill="#5c7cfa"/></marker>
<marker id="ao" viewBox="0 0 10 7" refX="9" refY="3.5" markerWidth="7" markerHeight="5" orient="auto"><path d="M0 0L10 3.5 0 7z" fill="#e8890c"/></marker>
<marker id="abig" viewBox="0 0 14 10" refX="13" refY="5" markerWidth="11" markerHeight="8" orient="auto"><path d="M0 0L14 5 0 10z" fill="#868e96"/></marker>
<pattern id="hatch" patternUnits="userSpaceOnUse" width="6" height="6" patternTransform="rotate(45)"><line x1="0" y1="0" x2="0" y2="6" stroke="#e03131" stroke-width=".7" opacity=".25"/></pattern>
</defs>
<!-- INPUT PANEL -->
<rect x="6" y="6" width="180" height="448" rx="8" fill="#f1f3f5" stroke="#ced4da" stroke-width="1.2"/>
<text x="96.0" y="26" font-size="12" fill="#495057" text-anchor="middle" font-weight="bold" letter-spacing="1.5">INPUT</text>
<line x1="18" y1="36" x2="174" y2="36" stroke="#dee2e6" stroke-width="0.8"/>
<rect x="18" y="50" width="156" height="136" rx="5" fill="white" stroke="#adb5bd" stroke-width="0.8"/>
<rect x="22" y="58" width="18" height="18" rx="3" fill="#4c6ef5" stroke="#4c6ef5" stroke-width="1.2" fill-opacity=".15"/>
<text x="31.0" y="70.96" font-size="9" fill="#4c6ef5" text-anchor="middle" font-weight="bold">M</text>
<text x="48" y="71" font-size="11" fill="#343a40" font-weight="bold">METAMODEL</text>
<rect x="22" y="82" width="46" height="14" rx="3" fill="#dbe4ff" stroke="#4c6ef5" stroke-width="0.5"/>
<text x="45.0" y="92.08" text-anchor="middle" font-size="6.5" fill="#4c6ef5" font-weight="600">DCL</text>
<rect x="72" y="82" width="46" height="14" rx="3" fill="#c3fae8" stroke="#20c997" stroke-width="0.5"/>
<text x="95.0" y="92.08" text-anchor="middle" font-size="6.5" fill="#0b7285" font-weight="600">CSL</text>
<rect x="122" y="82" width="46" height="14" rx="3" fill="#fff3bf" stroke="#fab005" stroke-width="0.5"/>
<text x="145.0" y="92.08" text-anchor="middle" font-size="6.5" fill="#e8890c" font-weight="600">FSL</text>
<rect x="22" y="104" width="68" height="14" rx="3" fill="#f1f3f5" stroke="#ced4da" stroke-width="0.5"/>
<text x="56.0" y="114.08" text-anchor="middle" font-size="6.5" fill="#495057">Predicates C1–C9</text>
<rect x="94" y="104" width="76" height="14" rx="3" fill="#f1f3f5" stroke="#ced4da" stroke-width="0.5"/>
<text x="132.0" y="114.08" text-anchor="middle" font-size="6.5" fill="#495057">Traces + format[1]</text>
<rect x="22" y="126" width="148" height="14" rx="3" fill="#f1f3f5" stroke="#ced4da" stroke-width="0.5"/>
<text x="96.0" y="136.08" text-anchor="middle" font-size="6.5" fill="#495057">Cross-layer graph predicates</text>
<rect x="18" y="196" width="156" height="113" rx="5" fill="white" stroke="#adb5bd" stroke-width="0.8"/>
<rect x="22" y="204" width="18" height="18" rx="3" fill="#0b7285" stroke="#0b7285" stroke-width="1.2" fill-opacity=".15"/>
<text x="31.0" y="216.96" font-size="9" fill="#0b7285" text-anchor="middle" font-weight="bold">S</text>
<text x="48" y="217" font-size="11" fill="#343a40" font-weight="bold">SCENARIO</text>
<rect x="22" y="230" width="148" height="14" rx="3" fill="#c3fae8" stroke="#20c997" stroke-width="0.5"/>
<text x="96.0" y="240.08" text-anchor="middle" font-size="6.5" fill="#0b7285">Housing subsidy (CSOK)</text>
<rect x="22" y="252" width="68" height="14" rx="3" fill="#c3fae8" stroke="#20c997" stroke-width="0.5"/>
<text x="56.0" y="262.08" text-anchor="middle" font-size="6.5" fill="#0b7285">3 credentials</text>
<rect x="94" y="252" width="72" height="14" rx="3" fill="#c3fae8" stroke="#20c997" stroke-width="0.5"/>
<text x="130.0" y="262.08" text-anchor="middle" font-size="6.5" fill="#0b7285">3 ind. issuers</text>
<rect x="22" y="272" width="148" height="14" rx="3" fill="#c3fae8" stroke="#20c997" stroke-width="0.5"/>
<text x="96.0" y="282.08" text-anchor="middle" font-size="6.5" fill="#0b7285">Cross-credential deps.</text>
<rect x="22" y="290" width="90" height="14" rx="3" fill="#c3fae8" stroke="#20c997" stroke-width="0.5"/>
<text x="67.0" y="300.08" text-anchor="middle" font-size="6.5" fill="#0b7285">Value constraints</text>
<rect x="18" y="319" width="156" height="119" rx="5" fill="white" stroke="#adb5bd" stroke-width="0.8"/>
<rect x="22" y="327" width="18" height="18" rx="3" fill="#7048e8" stroke="#7048e8" stroke-width="1.2" fill-opacity=".15"/>
<text x="31.0" y="339.96" font-size="9" fill="#7048e8" text-anchor="middle" font-weight="bold">G</text>
<text x="48" y="336" font-size="9.5" fill="#343a40" font-weight="bold">GOVERNANCE</text>
<text x="48" y="347" font-size="9.5" fill="#343a40" font-weight="bold">CONSTRAINTS</text>
<rect x="22" y="353" width="68" height="14" rx="3" fill="#e8590c" stroke="#e8590c" stroke-width="0.5" fill-opacity=".1"/>
<text x="56.0" y="363.08" text-anchor="middle" font-size="6.5" fill="#e8590c" font-weight="600">eIDAS ARF</text>
<rect x="94" y="353" width="72" height="14" rx="3" fill="#7048e8" stroke="#7048e8" stroke-width="0.5" fill-opacity=".1"/>
<text x="130.0" y="363.08" text-anchor="middle" font-size="6.5" fill="#7048e8" font-weight="600">GDPR 5(1)(c)</text>
<rect x="22" y="375" width="72" height="14" rx="3" fill="#1c7ed6" stroke="#1c7ed6" stroke-width="0.5" fill-opacity=".1"/>
<text x="58.0" y="385.08" text-anchor="middle" font-size="6.5" fill="#1c7ed6" font-weight="600">W3C VCDM 2.0</text>
<rect x="22" y="401" width="68" height="14" rx="3" fill="#f1f3f5" stroke="#ced4da" stroke-width="0.5"/>
<text x="56.0" y="411.08" text-anchor="middle" font-size="6.5" fill="#495057">Format mandates</text>
<rect x="94" y="401" width="72" height="14" rx="3" fill="#f1f3f5" stroke="#ced4da" stroke-width="0.5"/>
<text x="130.0" y="411.08" text-anchor="middle" font-size="6.5" fill="#495057">Privacy reqs.</text>
<rect x="22" y="423" width="148" height="14" rx="3" fill="#f1f3f5" stroke="#ced4da" stroke-width="0.5"/>
<text x="96.0" y="433.08" text-anchor="middle" font-size="6.5" fill="#495057">Data model conformance</text>
<line x1="190" y1="230" x2="222" y2="230" stroke="#868e96" stroke-width="2.5" marker-end="url(#abig)"/>
<rect x="226" y="6" width="730" height="448" rx="8" fill="none" stroke="#ced4da" stroke-width="1.2" stroke-dasharray="6,3"/>
<text x="591.0" y="24" font-size="12" fill="#495057" text-anchor="middle" font-weight="bold" letter-spacing="1.5">MODEL</text>

<!-- DCL -->
<rect x="236" y="57" width="710" height="100" rx="5" fill="#dbe4ff" stroke="#8da0cb" stroke-width="1.2" fill-opacity=".3"/>
<rect x="242" y="63" width="36" height="18" rx="3" fill="#4c6ef5" stroke="#adb5bd" stroke-width="0" fill-opacity=".15"/>
<text x="260" y="75" font-size="10" fill="#4c6ef5" text-anchor="middle" font-weight="bold">DCL</text>
<rect x="455.0" y="61" width="80" height="26" rx="6" fill="#dbe4ff" stroke="#4c6ef5" stroke-width="1.5" fill-opacity=".85"/>
<text x="495" y="73" font-size="9" fill="#1c3d8f" text-anchor="middle" font-weight="600">Applicant</text>
<text x="495" y="82" font-size="5.5" fill="#748ffc" text-anchor="middle" font-style="italic">Subject</text>
<line x1="495" y1="87" x2="495" y2="95" stroke="#495057" stroke-width="1"/>
<line x1="400" y1="95" x2="780" y2="95" stroke="#495057" stroke-width="1"/>
<line x1="400" y1="95" x2="400" y2="105" stroke="#495057" stroke-width="1" marker-end="url(#a)"/>
<line x1="590" y1="95" x2="590" y2="105" stroke="#495057" stroke-width="1" marker-end="url(#a)"/>
<line x1="780" y1="95" x2="780" y2="105" stroke="#495057" stroke-width="1" marker-end="url(#a)"/>
<text x="447.5" y="92" font-size="5.5" fill="#495057" text-anchor="middle">has_children</text>
<text x="542.5" y="92" font-size="5.5" fill="#495057" text-anchor="middle">owns_property</text>
<text x="685.0" y="92" font-size="5.5" fill="#495057" text-anchor="middle">earns</text>
<rect x="356.0" y="107" width="88" height="20" rx="4" fill="#dbe4ff" stroke="#4c6ef5" stroke-width="1" fill-opacity=".85"/>
<text x="400" y="119" font-size="7.5" fill="#1c3d8f" text-anchor="middle">num_children</text>
<rect x="546.0" y="107" width="88" height="20" rx="4" fill="#dbe4ff" stroke="#4c6ef5" stroke-width="1" fill-opacity=".85"/>
<text x="590" y="119" font-size="7.5" fill="#1c3d8f" text-anchor="middle">property_area</text>
<rect x="732.0" y="107" width="96" height="20" rx="4" fill="#dbe4ff" stroke="#4c6ef5" stroke-width="1" fill-opacity=".85"/>
<text x="780" y="119" font-size="7.5" fill="#1c3d8f" text-anchor="middle">monthly_income</text>
<path d="M430 151Q495.0 169 560 151" fill="none" stroke="#4c6ef5" stroke-width="1" stroke-dasharray="3,2"/>
<rect x="455.0" y="159" width="80" height="24" rx="3" fill="white" stroke="#4c6ef5" stroke-width="0.7" fill-opacity=".95"/>
<text x="461.0" y="169" font-size="6" fill="#4c6ef5" font-weight="700">C4:</text>
<text x="475.0" y="169" font-size="5.5" fill="#495057">area ≥ f(children)</text>
<text x="461.0" y="178" font-size="4.5" fill="#868e96">cross-cred value dep.</text>

<!-- C1, C2 constraint cards (DCL↔CSL gap) -->
<rect x="245" y="159" width="108" height="26" rx="3" fill="white" stroke="#5c7cfa" stroke-width="0.7" fill-opacity=".95"/>
<text x="251" y="169" font-size="5.5" fill="#5c7cfa" font-weight="700">C1:</text>
<text x="267" y="169" font-size="5" fill="#495057">entity alignment</text>
<text x="251" y="179" font-size="5.5" fill="#5c7cfa" font-weight="700">C2:</text>
<text x="267" y="179" font-size="5" fill="#495057">trace consistency</text>
<line x1="400" y1="157" x2="400" y2="179" stroke="#5c7cfa" stroke-width="1.5" stroke-dasharray="4,3" marker-end="url(#ab)" opacity=".6"/>
<line x1="590" y1="157" x2="590" y2="179" stroke="#5c7cfa" stroke-width="1.5" stroke-dasharray="4,3" marker-end="url(#ab)" opacity=".6"/>
<line x1="780" y1="157" x2="780" y2="179" stroke="#5c7cfa" stroke-width="1.5" stroke-dasharray="4,3" marker-end="url(#ab)" opacity=".6"/>
<line x1="380" y1="172" x2="816" y2="172" stroke="#5c7cfa" stroke-width="0.6" stroke-dasharray="2,3" opacity=".25"/>

<!-- CSL -->
<rect x="236" y="179" width="710" height="100" rx="5" fill="#c3fae8" stroke="#66d9a8" stroke-width="1.2" fill-opacity=".3"/>
<rect x="242" y="185" width="34" height="18" rx="3" fill="#20c997" stroke="#adb5bd" stroke-width="0" fill-opacity=".15"/>
<text x="259" y="197" font-size="10" fill="#0b7285" text-anchor="middle" font-weight="bold">CSL</text>
<rect x="330.0" y="185" width="140" height="56" rx="5" fill="#c3fae8" stroke="#20c997" stroke-width="1" fill-opacity=".15" stroke-dasharray="5,3"/>
<text x="400" y="196" font-size="7.5" fill="#0b7285" text-anchor="middle" font-weight="600">FamilyStatusCred</text>
<text x="400" y="205" font-size="5.5" fill="#868e96" text-anchor="middle" font-style="italic">Civil registry</text>
<rect x="338.0" y="211" width="52" height="14" rx="3" fill="#c3fae8" stroke="#20c997" stroke-width="0.8" fill-opacity=".8"/>
<text x="364.0" y="221" font-size="5.5" fill="#0b7285" text-anchor="middle">CS_App₁</text>
<line x1="390.0" y1="218" x2="402.0" y2="218" stroke="#495057" stroke-width="0.6" marker-end="url(#a)"/>
<rect x="404.0" y="211" width="52" height="14" rx="3" fill="#c3fae8" stroke="#20c997" stroke-width="0.8" fill-opacity=".8"/>
<text x="430.0" y="221" font-size="5.5" fill="#0b7285" text-anchor="middle">num_ch₁</text>
<text x="400" y="270" font-size="5.5" fill="#20c997" text-anchor="middle" font-style="italic">C3 ✓</text>
<rect x="520.0" y="185" width="140" height="56" rx="5" fill="#c3fae8" stroke="#20c997" stroke-width="1" fill-opacity=".15" stroke-dasharray="5,3"/>
<text x="590" y="196" font-size="7.5" fill="#0b7285" text-anchor="middle" font-weight="600">PropertyCred</text>
<text x="590" y="205" font-size="5.5" fill="#868e96" text-anchor="middle" font-style="italic">Land registry</text>
<rect x="528.0" y="211" width="52" height="14" rx="3" fill="#c3fae8" stroke="#20c997" stroke-width="0.8" fill-opacity=".8"/>
<text x="554.0" y="221" font-size="5.5" fill="#0b7285" text-anchor="middle">CS_App₂</text>
<line x1="580.0" y1="218" x2="592.0" y2="218" stroke="#495057" stroke-width="0.6" marker-end="url(#a)"/>
<rect x="594.0" y="211" width="52" height="14" rx="3" fill="#c3fae8" stroke="#20c997" stroke-width="0.8" fill-opacity=".8"/>
<text x="620.0" y="221" font-size="5.5" fill="#0b7285" text-anchor="middle">prop_a₁</text>
<text x="590" y="270" font-size="5.5" fill="#20c997" text-anchor="middle" font-style="italic">C3 ✓</text>
<rect x="710.0" y="185" width="140" height="56" rx="5" fill="#c3fae8" stroke="#20c997" stroke-width="1" fill-opacity=".15" stroke-dasharray="5,3"/>
<text x="780" y="196" font-size="7.5" fill="#0b7285" text-anchor="middle" font-weight="600">IncomeCred</text>
<text x="780" y="205" font-size="5.5" fill="#868e96" text-anchor="middle" font-style="italic">Employer</text>
<rect x="718.0" y="211" width="52" height="14" rx="3" fill="#c3fae8" stroke="#20c997" stroke-width="0.8" fill-opacity=".8"/>
<text x="744.0" y="221" font-size="5.5" fill="#0b7285" text-anchor="middle">CS_App₃</text>
<line x1="770.0" y1="218" x2="782.0" y2="218" stroke="#495057" stroke-width="0.6" marker-end="url(#a)"/>
<rect x="784.0" y="211" width="52" height="14" rx="3" fill="#c3fae8" stroke="#20c997" stroke-width="0.8" fill-opacity=".8"/>
<text x="810.0" y="221" font-size="5.5" fill="#0b7285" text-anchor="middle">mon_inc₁</text>
<text x="780" y="270" font-size="5.5" fill="#20c997" text-anchor="middle" font-style="italic">C3 ✓</text>

<!-- CSL → FSL format[1] traces -->
<line x1="400" y1="279" x2="400" y2="301" stroke="#e8890c" stroke-width="1.5" stroke-dasharray="4,3" marker-end="url(#ao)" opacity=".6"/>
<rect x="376.0" y="285.0" width="48" height="10" rx="5" fill="white" stroke="#e8890c" stroke-width="0.6"/>
<text x="400" y="293.0" font-size="5" fill="#e8890c" text-anchor="middle" font-weight="600">format[1]</text>
<line x1="590" y1="279" x2="590" y2="301" stroke="#e8890c" stroke-width="1.5" stroke-dasharray="4,3" marker-end="url(#ao)" opacity=".6"/>
<rect x="566.0" y="285.0" width="48" height="10" rx="5" fill="white" stroke="#e8890c" stroke-width="0.6"/>
<text x="590" y="293.0" font-size="5" fill="#e8890c" text-anchor="middle" font-weight="600">format[1]</text>
<line x1="780" y1="279" x2="780" y2="301" stroke="#e8890c" stroke-width="1.5" stroke-dasharray="4,3" marker-end="url(#ao)" opacity=".6"/>
<rect x="756.0" y="285.0" width="48" height="10" rx="5" fill="white" stroke="#e03131" stroke-width="0.7"/>
<text x="780" y="293.0" font-size="5" fill="#e03131" text-anchor="middle" font-weight="600">format[1]</text>

<!-- FSL -->
<rect x="236" y="301" width="710" height="130" rx="5" fill="#fff3bf" stroke="#fcc419" stroke-width="1.2" fill-opacity=".3"/>
<rect x="242" y="307" width="32" height="18" rx="3" fill="#fab005" stroke="#adb5bd" stroke-width="0" fill-opacity=".15"/>
<text x="258" y="319" font-size="10" fill="#e8890c" text-anchor="middle" font-weight="bold">FSL</text>
<rect x="360" y="309" width="80" height="28" rx="4" fill="#fff3bf" stroke="#fab005" stroke-width="1" fill-opacity=".85"/>
<text x="400" y="322" font-size="7.5" fill="#795508" text-anchor="middle" font-weight="600">SD-JWT-VC</text>
<text x="400" y="332" font-size="5" fill="#2b8a3e" text-anchor="middle">eIDAS ✓</text>
<rect x="550" y="309" width="80" height="28" rx="4" fill="#fff3bf" stroke="#fab005" stroke-width="1" fill-opacity=".85"/>
<text x="590" y="322" font-size="7.5" fill="#795508" text-anchor="middle" font-weight="600">SD-JWT-VC</text>
<text x="590" y="332" font-size="5" fill="#2b8a3e" text-anchor="middle">eIDAS ✓</text>
<rect x="245" y="309" width="80" height="24" rx="3" fill="white" stroke="#e8590c" stroke-width="0.7" fill-opacity=".95"/>
<text x="251" y="319" font-size="6" fill="#e8590c" font-weight="700">C5:</text>
<text x="265" y="319" font-size="5.5" fill="#495057">eIDAS mandate</text>
<text x="251" y="328" font-size="4.5" fill="#868e96">EU wallets → SD-JWT-VC</text>
<rect x="245" y="337" width="80" height="24" rx="3" fill="white" stroke="#7048e8" stroke-width="0.7" fill-opacity=".95"/>
<text x="251" y="347" font-size="6" fill="#7048e8" font-weight="700">C6:</text>
<text x="265" y="347" font-size="5.5" fill="#495057">pred proof req.</text>
<text x="251" y="356" font-size="4.5" fill="#868e96">GDPR → income needs ZKP</text>
<rect x="245" y="365" width="80" height="24" rx="3" fill="white" stroke="#1c7ed6" stroke-width="0.7" fill-opacity=".95"/>
<text x="251" y="375" font-size="6" fill="#1c7ed6" font-weight="700">C7:</text>
<text x="265" y="375" font-size="5.5" fill="#495057">VCDM conform.</text>
<text x="251" y="384" font-size="4.5" fill="#868e96">W3C → AnonCreds fails</text>
<path d="M360 343L360 355Q360 361 366 361L440.0 361" fill="none" stroke="#e03131" stroke-width="1.2" stroke-dasharray="3,2"/>
<path d="M630 343L630 355Q630 361 624 361L550.0 361" fill="none" stroke="#e03131" stroke-width="1.2" stroke-dasharray="3,2"/>
<rect x="440.0" y="355" width="110" height="28" rx="3" fill="white" stroke="#e03131" stroke-width="0.7" fill-opacity=".95"/>
<text x="446.0" y="365" font-size="6" fill="#e03131" font-weight="700">C9:</text>
<text x="460.0" y="365" font-size="5.5" fill="#495057">cross-credential predicate gap</text>
<text x="446.0" y="374" font-size="4.5" fill="#868e96">requires cross-cred ZKP; no format supports it</text>
<rect x="706" y="305" width="186" height="90" rx="5" fill="#ffc9c9" stroke="#e03131" stroke-width="1.5" fill-opacity=".3" stroke-dasharray="5,3"/>
<rect x="706" y="305" width="186" height="90" rx="5" fill="url(#hatch)" stroke="none" stroke-width="0"/>
<!-- hatch -->
<rect x="714" y="313" width="82" height="40" rx="4" fill="#fff3bf" stroke="#fab005" stroke-width="0.9" fill-opacity=".9"/>
<text x="755.0" y="326" font-size="7" fill="#795508" text-anchor="middle" font-weight="600">SD-JWT-VC</text>
<text x="755.0" y="336" font-size="5" fill="#2b8a3e" text-anchor="middle">eIDAS ✓ W3C ✓</text>
<text x="755.0" y="346" font-size="5.5" fill="#e03131" text-anchor="middle" font-weight="bold">pred ✗</text>
<rect x="804" y="313" width="82" height="40" rx="4" fill="#fff3bf" stroke="#fab005" stroke-width="0.9" fill-opacity=".9"/>
<text x="845.0" y="326" font-size="7" fill="#795508" text-anchor="middle" font-weight="600">AnonCreds</text>
<text x="845.0" y="336" font-size="5" fill="#2b8a3e" text-anchor="middle">pred ✓</text>
<text x="845.0" y="346" font-size="5.5" fill="#e03131" text-anchor="middle" font-weight="bold">eIDAS ✗ W3C ✗</text>
<rect x="714" y="361" width="170" height="28" rx="3" fill="white" stroke="#e03131" stroke-width="0.7" fill-opacity=".95"/>
<text x="720" y="371" font-size="6" fill="#e03131" font-weight="700">C8:</text>
<text x="734" y="371" font-size="5.5" fill="#495057">governance conflict</text>
<text x="720" y="380" font-size="4.5" fill="#868e96">C5∧C6∧C7 jointly unsatisfiable on IncomeCred</text>
<rect x="716" y="395" width="26" height="10" rx="2" fill="#e8590c" stroke="#e8590c" stroke-width="0.5" fill-opacity=".12"/>
<text x="729.0" y="402" font-size="4.5" fill="#e8590c" text-anchor="middle" font-weight="bold">eIDAS</text>
<rect x="746" y="395" width="24" height="10" rx="2" fill="#7048e8" stroke="#7048e8" stroke-width="0.5" fill-opacity=".12"/>
<text x="758.0" y="402" font-size="4.5" fill="#7048e8" text-anchor="middle" font-weight="bold">GDPR</text>
<rect x="774" y="395" width="22" height="10" rx="2" fill="#1c7ed6" stroke="#1c7ed6" stroke-width="0.5" fill-opacity=".12"/>
<text x="785.0" y="402" font-size="4.5" fill="#1c7ed6" text-anchor="middle" font-weight="bold">W3C</text>
<line x1="960" y1="230" x2="992" y2="230" stroke="#868e96" stroke-width="2.5" marker-end="url(#abig)"/>

<!-- RESULT PANEL -->
<rect x="996" y="6" width="268" height="448" rx="8" fill="#f1f3f5" stroke="#ced4da" stroke-width="1.2"/>
<text x="1130.0" y="26" font-size="12" fill="#495057" text-anchor="middle" font-weight="bold" letter-spacing="1.5">RESULT</text>
<line x1="1010" y1="36" x2="1250" y2="36" stroke="#dee2e6" stroke-width="0.8"/>
<rect x="1008" y="50" width="244" height="136" rx="5" fill="white" stroke="#adb5bd" stroke-width="0.8"/>
<circle cx="1024" cy="66" r="10" fill="#fab005" stroke="#e8890c" stroke-width="1.2" fill-opacity=".25"/>
<text x="1024" y="70" font-size="10" fill="#e8890c" text-anchor="middle" font-weight="bold">1</text>
<text x="1048" y="70" font-size="11" fill="#343a40" font-weight="bold">VERIFY</text>
<rect x="1016" y="80" width="110.0" height="34" rx="3" fill="#d3f9d8" stroke="#2b8a3e" stroke-width="0.6" fill-opacity=".4"/>
<text x="1022" y="94" font-size="10" fill="#2b8a3e" font-weight="bold">SAT</text>
<text x="1022" y="106" font-size="6.5" fill="#2b8a3e">design is consistent</text>
<rect x="1016" y="118" width="110.0" height="34" rx="3" fill="#ffc9c9" stroke="#e03131" stroke-width="0.6" fill-opacity=".4"/>
<text x="1022" y="132" font-size="10" fill="#e03131" font-weight="bold">UNSAT</text>
<text x="1022" y="144" font-size="6.5" fill="#e03131">constraints conflict</text>
<rect x="1134.0" y="80" width="110.0" height="34" rx="3" fill="#fafafa" stroke="#dee2e6" stroke-width="0.5" stroke-dasharray="2,2"/>
<circle cx="1152.0" cy="97.0" r="5" fill="#dbe4ff" stroke="#4c6ef5" stroke-width="0.5"/>
<text x="1152.0" y="100.0" font-size="3.5" fill="#1c3d8f" text-anchor="middle">S</text>
<rect x="1166.0" y="87" width="24" height="7" rx="2" fill="#c3fae8" stroke="#20c997" stroke-width="0.4"/>
<rect x="1166.0" y="97" width="24" height="7" rx="2" fill="#c3fae8" stroke="#20c997" stroke-width="0.4"/>
<rect x="1166.0" y="107" width="24" height="7" rx="2" fill="#c3fae8" stroke="#20c997" stroke-width="0.4"/>
<rect x="1194.0" y="87" width="18" height="7" rx="2" fill="#d3f9d8" stroke="#2b8a3e" stroke-width="0.4"/>
<rect x="1194.0" y="97" width="18" height="7" rx="2" fill="#d3f9d8" stroke="#2b8a3e" stroke-width="0.4"/>
<line x1="1157.0" y1="97.0" x2="1166.0" y2="90" stroke="#868e96" stroke-width="0.3"/>
<line x1="1157.0" y1="97.0" x2="1166.0" y2="100" stroke="#868e96" stroke-width="0.3"/>
<line x1="1157.0" y1="97.0" x2="1166.0" y2="110" stroke="#868e96" stroke-width="0.3"/>
<text x="1189.0" y="110" font-size="5" fill="#2b8a3e" text-anchor="middle">✓ model found</text>
<rect x="1134.0" y="118" width="110.0" height="34" rx="3" fill="#fafafa" stroke="#dee2e6" stroke-width="0.5" stroke-dasharray="2,2"/>
<circle cx="1152.0" cy="135.0" r="5" fill="#dbe4ff" stroke="#4c6ef5" stroke-width="0.5"/>
<text x="1152.0" y="138.0" font-size="3.5" fill="#1c3d8f" text-anchor="middle">S</text>
<rect x="1166.0" y="125" width="24" height="7" rx="2" fill="#c3fae8" stroke="#20c997" stroke-width="0.4"/>
<rect x="1166.0" y="135" width="24" height="7" rx="2" fill="#c3fae8" stroke="#20c997" stroke-width="0.4"/>
<rect x="1166.0" y="145" width="24" height="7" rx="2" fill="#ffc9c9" stroke="#e03131" stroke-width="0.6"/>
<rect x="1194.0" y="125" width="18" height="7" rx="2" fill="#d3f9d8" stroke="#2b8a3e" stroke-width="0.4"/>
<rect x="1194.0" y="135" width="18" height="7" rx="2" fill="#ffc9c9" stroke="#e03131" stroke-width="0.5" stroke-dasharray="2,1"/>
<line x1="1157.0" y1="135.0" x2="1166.0" y2="128" stroke="#868e96" stroke-width="0.3"/>
<line x1="1157.0" y1="135.0" x2="1166.0" y2="138" stroke="#868e96" stroke-width="0.3"/>
<line x1="1157.0" y1="135.0" x2="1166.0" y2="148" stroke="#e03131" stroke-width="0.3"/>
<text x="1189.0" y="148" font-size="5" fill="#e03131" text-anchor="middle">✗ no model</text>
<rect x="1008" y="196" width="244" height="113" rx="5" fill="white" stroke="#adb5bd" stroke-width="0.8"/>
<circle cx="1024" cy="212" r="10" fill="#e03131" stroke="#e03131" stroke-width="1.2" fill-opacity=".12"/>
<text x="1024" y="216" font-size="10" fill="#e03131" text-anchor="middle" font-weight="bold">2</text>
<text x="1048" y="216" font-size="11" fill="#343a40" font-weight="bold">IDENTIFY ERRORS</text>
<rect x="1016" y="228" width="124" height="14" rx="2" fill="#ffc9c9" stroke="none" stroke-width="0" fill-opacity=".2"/>
<text x="1020" y="238" font-size="7" fill="#c92a2a" font-weight="600">▸ governance_conflict</text>
<text x="1026" y="250" font-size="6.5" fill="#868e96">(IncomeCred)</text>
<rect x="1016" y="258" width="124" height="14" rx="2" fill="#ffc9c9" stroke="none" stroke-width="0" fill-opacity=".2"/>
<text x="1020" y="268" font-size="7" fill="#c92a2a" font-weight="600">▸ cross_cred_pred_gap</text>
<text x="1026" y="280" font-size="6.5" fill="#868e96">(area, children)</text>
<rect x="1142.0" y="228" width="98.0" height="71" rx="3" fill="#fafafa" stroke="#dee2e6" stroke-width="0.5" stroke-dasharray="2,2"/>
<circle cx="1160.0" cy="263.5" r="6" fill="#dbe4ff" stroke="#4c6ef5" stroke-width="0.5"/>
<text x="1160.0" y="266.5" font-size="4" fill="#1c3d8f" text-anchor="middle">App</text>
<rect x="1176.0" y="240" width="28" height="8" rx="2" fill="#c3fae8" stroke="#20c997" stroke-width="0.4"/>
<text x="1190.0" y="246" font-size="3.5" fill="#0b7285" text-anchor="middle">Fam</text>
<rect x="1212.0" y="240" width="24" height="8" rx="2" fill="#fff3bf" stroke="#fab005" stroke-width="0.3"/>
<line x1="1166.0" y1="263.5" x2="1176.0" y2="244" stroke="#868e96" stroke-width="0.3"/>
<line x1="1204.0" y1="244" x2="1212.0" y2="244" stroke="#868e96" stroke-width="0.3"/>
<rect x="1176.0" y="252" width="28" height="8" rx="2" fill="#c3fae8" stroke="#20c997" stroke-width="0.4"/>
<text x="1190.0" y="258" font-size="3.5" fill="#0b7285" text-anchor="middle">Prop</text>
<rect x="1212.0" y="252" width="24" height="8" rx="2" fill="#fff3bf" stroke="#fab005" stroke-width="0.3"/>
<line x1="1166.0" y1="263.5" x2="1176.0" y2="256" stroke="#868e96" stroke-width="0.3"/>
<line x1="1204.0" y1="256" x2="1212.0" y2="256" stroke="#868e96" stroke-width="0.3"/>
<rect x="1176.0" y="264" width="28" height="8" rx="2" fill="#ffc9c9" stroke="#e03131" stroke-width="0.8"/>
<text x="1190.0" y="270" font-size="3.5" fill="#c92a2a" text-anchor="middle" font-weight="bold">Inc</text>
<rect x="1212.0" y="264" width="24" height="8" rx="2" fill="#ffc9c9" stroke="#e03131" stroke-width="0.6"/>
<text x="1224.0" y="270" font-size="3" fill="#c92a2a" text-anchor="middle" font-weight="bold">C8✗</text>
<line x1="1166.0" y1="263.5" x2="1176.0" y2="268" stroke="#e03131" stroke-width="0.4"/>
<line x1="1204.0" y1="268" x2="1212.0" y2="268" stroke="#e03131" stroke-width="0.4"/>
<path d="M1182.0 287L1182.0 293 1212.0 293" fill="none" stroke="#e03131" stroke-width="0.6" stroke-dasharray="2,1"/>
<text x="1197.0" y="298" font-size="3.5" fill="#e03131" text-anchor="middle">C9 gap</text>
<rect x="1008" y="319" width="244" height="119" rx="5" fill="white" stroke="#adb5bd" stroke-width="0.8"/>
<circle cx="1024" cy="335" r="10" fill="#2b8a3e" stroke="#2b8a3e" stroke-width="1.2" fill-opacity=".12"/>
<text x="1024" y="339" font-size="10" fill="#2b8a3e" text-anchor="middle" font-weight="bold">3</text>
<text x="1048" y="339" font-size="11" fill="#343a40" font-weight="bold">GENERATE</text>
<rect x="1016" y="349" width="228" height="14" rx="3" fill="#d3f9d8" stroke="#2b8a3e" stroke-width="0.5" fill-opacity=".35"/>
<text x="1130.0" y="359" font-size="6.5" fill="#2b8a3e" text-anchor="middle" font-weight="600">Relax C6 (GDPR) → 2 valid configurations</text>
<rect x="1016.0" y="369" width="106.0" height="61" rx="3" fill="#fafafa" stroke="#dee2e6" stroke-width="0.6" stroke-dasharray="3,2"/>
<text x="1069.0" y="381" font-size="6.5" fill="#2b8a3e" text-anchor="middle" font-weight="600">Config A</text>
<circle cx="1034.0" cy="401" r="5.5" fill="#dbe4ff" stroke="#4c6ef5" stroke-width="0.5"/>
<text x="1034.0" y="404" font-size="3.5" fill="#1c3d8f" text-anchor="middle">App</text>
<rect x="1048.0" y="393" width="32" height="8" rx="2" fill="#c3fae8" stroke="#20c997" stroke-width="0.4"/>
<text x="1064.0" y="399" font-size="3.5" fill="#0b7285" text-anchor="middle">Fam</text>
<rect x="1086.0" y="393" width="36" height="8" rx="2" fill="#fff3bf" stroke="#fab005" stroke-width="0.4"/>
<text x="1104.0" y="399" font-size="3" fill="#795508" text-anchor="middle">SD-JWT</text>
<line x1="1039.0" y1="401" x2="1048.0" y2="397" stroke="#868e96" stroke-width="0.3"/>
<line x1="1080.0" y1="397" x2="1086.0" y2="397" stroke="#868e96" stroke-width="0.3"/>
<rect x="1048.0" y="405" width="32" height="8" rx="2" fill="#c3fae8" stroke="#20c997" stroke-width="0.4"/>
<text x="1064.0" y="411" font-size="3.5" fill="#0b7285" text-anchor="middle">Prop</text>
<rect x="1086.0" y="405" width="36" height="8" rx="2" fill="#fff3bf" stroke="#fab005" stroke-width="0.4"/>
<text x="1104.0" y="411" font-size="3" fill="#795508" text-anchor="middle">SD-JWT</text>
<line x1="1039.0" y1="401" x2="1048.0" y2="409" stroke="#868e96" stroke-width="0.3"/>
<line x1="1080.0" y1="409" x2="1086.0" y2="409" stroke="#868e96" stroke-width="0.3"/>
<rect x="1048.0" y="417" width="32" height="8" rx="2" fill="#c3fae8" stroke="#20c997" stroke-width="0.4"/>
<text x="1064.0" y="423" font-size="3.5" fill="#0b7285" text-anchor="middle">Inc</text>
<rect x="1086.0" y="417" width="36" height="8" rx="2" fill="#fff3bf" stroke="#fab005" stroke-width="0.4"/>
<text x="1104.0" y="423" font-size="3" fill="#795508" text-anchor="middle">SD-JWT</text>
<line x1="1039.0" y1="401" x2="1048.0" y2="421" stroke="#868e96" stroke-width="0.3"/>
<line x1="1080.0" y1="421" x2="1086.0" y2="421" stroke="#868e96" stroke-width="0.3"/>
<text x="1069.0" y="426" font-size="6" fill="#2b8a3e" text-anchor="middle">✓ all SD-JWT-VC</text>
<rect x="1130.0" y="369" width="106.0" height="61" rx="3" fill="#fafafa" stroke="#dee2e6" stroke-width="0.6" stroke-dasharray="3,2"/>
<text x="1183.0" y="381" font-size="6.5" fill="#2b8a3e" text-anchor="middle" font-weight="600">Config B</text>
<circle cx="1148.0" cy="401" r="5.5" fill="#dbe4ff" stroke="#4c6ef5" stroke-width="0.5"/>
<text x="1148.0" y="404" font-size="3.5" fill="#1c3d8f" text-anchor="middle">App</text>
<rect x="1162.0" y="393" width="32" height="8" rx="2" fill="#c3fae8" stroke="#20c997" stroke-width="0.4"/>
<text x="1178.0" y="399" font-size="3.5" fill="#0b7285" text-anchor="middle">Fam</text>
<rect x="1200.0" y="393" width="36" height="8" rx="2" fill="#fff3bf" stroke="#fab005" stroke-width="0.4"/>
<text x="1218.0" y="399" font-size="3" fill="#795508" text-anchor="middle">SD-JWT</text>
<line x1="1153.0" y1="401" x2="1162.0" y2="397" stroke="#868e96" stroke-width="0.3"/>
<line x1="1194.0" y1="397" x2="1200.0" y2="397" stroke="#868e96" stroke-width="0.3"/>
<rect x="1162.0" y="405" width="32" height="8" rx="2" fill="#c3fae8" stroke="#20c997" stroke-width="0.4"/>
<text x="1178.0" y="411" font-size="3.5" fill="#0b7285" text-anchor="middle">Prop</text>
<rect x="1200.0" y="405" width="36" height="8" rx="2" fill="#e4d8fd" stroke="#7048e8" stroke-width="0.5"/>
<text x="1218.0" y="411" font-size="3" fill="#7048e8" text-anchor="middle" font-weight="600">mdoc</text>
<line x1="1153.0" y1="401" x2="1162.0" y2="409" stroke="#868e96" stroke-width="0.3"/>
<line x1="1194.0" y1="409" x2="1200.0" y2="409" stroke="#7048e8" stroke-width="0.4"/>
<rect x="1162.0" y="417" width="32" height="8" rx="2" fill="#c3fae8" stroke="#20c997" stroke-width="0.4"/>
<text x="1178.0" y="423" font-size="3.5" fill="#0b7285" text-anchor="middle">Inc</text>
<rect x="1200.0" y="417" width="36" height="8" rx="2" fill="#fff3bf" stroke="#fab005" stroke-width="0.4"/>
<text x="1218.0" y="423" font-size="3" fill="#795508" text-anchor="middle">SD-JWT</text>
<line x1="1153.0" y1="401" x2="1162.0" y2="421" stroke="#868e96" stroke-width="0.3"/>
<line x1="1194.0" y1="421" x2="1200.0" y2="421" stroke="#868e96" stroke-width="0.3"/>
<text x="1183.0" y="426" font-size="6" fill="#2b8a3e" text-anchor="middle">✓ Prop → mdoc</text>
</svg>