<svg viewBox="0 0 1300 440" xmlns="http://www.w3.org/2000/svg" font-family="system-ui, -apple-system, 'Segoe UI', sans-serif">
<defs>
<marker id="a" viewBox="0 0 10 7" refX="9" refY="3.5" markerWidth="8" markerHeight="6" orient="auto"><path d="M0 0L10 3.5 0 7z" fill="#495057"/></marker>
<marker id="ab" viewBox="0 0 10 7" refX="9" refY="3.5" markerWidth="7" markerHeight="5" orient="auto"><path d="M0 0L10 3.5 0 7z" fill="#5c7cfa"/></marker>
<marker id="ao" viewBox="0 0 10 7" refX="9" refY="3.5" markerWidth="7" markerHeight="5" orient="auto"><path d="M0 0L10 3.5 0 7z" fill="#e8890c"/></marker>
<marker id="abig" viewBox="0 0 14 10" refX="13" refY="5" markerWidth="11" markerHeight="8" orient="auto"><path d="M0 0L14 5 0 10z" fill="#868e96"/></marker>
<pattern id="hatch" patternUnits="userSpaceOnUse" width="6" height="6" patternTransform="rotate(45)"><line x1="0" y1="0" x2="0" y2="6" stroke="#e03131" stroke-width=".7" opacity=".25"/></pattern>
</defs>

<!-- INPUT PANEL (same as v11) -->
<g id="input">
<rect x="6" y="6" width="190" height="428" rx="8" fill="#f1f3f5" stroke="#ced4da" stroke-width="1.2"/>
<text x="101" y="26" text-anchor="middle" font-weight="bold" font-size="12" fill="#495057" letter-spacing="1.5">INPUT</text>
<line x1="18" y1="34" x2="184" y2="34" stroke="#dee2e6" stroke-width=".8"/>
<rect x="14" y="42" width="174" height="108" rx="5" fill="white" stroke="#adb5bd" stroke-width=".8"/>
<rect x="22" y="50" width="18" height="18" rx="3" fill="#4c6ef5" fill-opacity=".15" stroke="#4c6ef5" stroke-width="1.2"/><text x="31" y="63" text-anchor="middle" font-weight="bold" font-size="9" fill="#4c6ef5">M</text>
<text x="48" y="63" font-weight="bold" font-size="11" fill="#343a40">METAMODEL</text>
<rect x="22" y="74" width="46" height="14" rx="3" fill="#dbe4ff" stroke="#4c6ef5" stroke-width=".5"/><text x="45" y="84" text-anchor="middle" font-size="6.5" font-weight="600" fill="#4c6ef5">DCL</text>
<rect x="74" y="74" width="46" height="14" rx="3" fill="#c3fae8" stroke="#20c997" stroke-width=".5"/><text x="97" y="84" text-anchor="middle" font-size="6.5" font-weight="600" fill="#0b7285">CSL</text>
<rect x="126" y="74" width="46" height="14" rx="3" fill="#fff3bf" stroke="#fab005" stroke-width=".5"/><text x="149" y="84" text-anchor="middle" font-size="6.5" font-weight="600" fill="#e8890c">FSL</text>
<rect x="22" y="96" width="68" height="14" rx="3" fill="#f1f3f5" stroke="#ced4da" stroke-width=".5"/><text x="56" y="106" text-anchor="middle" font-size="6.5" fill="#495057">Predicates C1–C9</text>
<rect x="96" y="96" width="76" height="14" rx="3" fill="#f1f3f5" stroke="#ced4da" stroke-width=".5"/><text x="134" y="106" text-anchor="middle" font-size="6.5" fill="#495057">Traces + format[1]</text>
<rect x="22" y="118" width="150" height="14" rx="3" fill="#f1f3f5" stroke="#ced4da" stroke-width=".5"/><text x="97" y="128" text-anchor="middle" font-size="6.5" fill="#495057">Cross-layer graph predicates</text>
<rect x="14" y="160" width="174" height="120" rx="5" fill="white" stroke="#adb5bd" stroke-width=".8"/>
<rect x="22" y="168" width="18" height="18" rx="3" fill="#20c997" fill-opacity=".15" stroke="#0b7285" stroke-width="1.2"/><text x="31" y="181" text-anchor="middle" font-weight="bold" font-size="9" fill="#0b7285">S</text>
<text x="48" y="181" font-weight="bold" font-size="11" fill="#343a40">SCENARIO</text>
<rect x="22" y="194" width="150" height="14" rx="3" fill="#c3fae8" fill-opacity=".25" stroke="#20c997" stroke-width=".5"/><text x="97" y="204" text-anchor="middle" font-size="6.5" fill="#0b7285">Housing subsidy (CSOK)</text>
<rect x="22" y="216" width="72" height="14" rx="3" fill="#c3fae8" fill-opacity=".25" stroke="#20c997" stroke-width=".5"/><text x="58" y="226" text-anchor="middle" font-size="6.5" fill="#0b7285">3 credentials</text>
<rect x="100" y="216" width="72" height="14" rx="3" fill="#c3fae8" fill-opacity=".25" stroke="#20c997" stroke-width=".5"/><text x="136" y="226" text-anchor="middle" font-size="6.5" fill="#0b7285">3 ind. issuers</text>
<rect x="22" y="238" width="102" height="14" rx="3" fill="#c3fae8" fill-opacity=".25" stroke="#20c997" stroke-width=".5"/><text x="73" y="248" text-anchor="middle" font-size="6.5" fill="#0b7285">Cross-credential deps.</text>
<rect x="22" y="260" width="90" height="14" rx="3" fill="#c3fae8" fill-opacity=".25" stroke="#20c997" stroke-width=".5"/><text x="67" y="270" text-anchor="middle" font-size="6.5" fill="#0b7285">Value constraints</text>
<rect x="14" y="290" width="174" height="138" rx="5" fill="white" stroke="#adb5bd" stroke-width=".8"/>
<rect x="22" y="298" width="18" height="18" rx="3" fill="#7048e8" fill-opacity=".15" stroke="#7048e8" stroke-width="1.2"/><text x="31" y="311" text-anchor="middle" font-weight="bold" font-size="9" fill="#7048e8">G</text>
<text x="48" y="307" font-weight="bold" font-size="9.5" fill="#343a40">GOVERNANCE</text>
<text x="48" y="318" font-weight="bold" font-size="9.5" fill="#343a40">CONSTRAINTS</text>
<rect x="22" y="324" width="72" height="14" rx="3" fill="#e8590c" fill-opacity=".1" stroke="#e8590c" stroke-width=".5"/><text x="58" y="334" text-anchor="middle" font-size="6.5" font-weight="600" fill="#e8590c">eIDAS ARF</text>
<rect x="100" y="324" width="72" height="14" rx="3" fill="#7048e8" fill-opacity=".1" stroke="#7048e8" stroke-width=".5"/><text x="136" y="334" text-anchor="middle" font-size="6.5" font-weight="600" fill="#7048e8">GDPR 5(1)(c)</text>
<rect x="22" y="346" width="72" height="14" rx="3" fill="#1c7ed6" fill-opacity=".1" stroke="#1c7ed6" stroke-width=".5"/><text x="58" y="356" text-anchor="middle" font-size="6.5" font-weight="600" fill="#1c7ed6">W3C VCDM 2.0</text>
<rect x="22" y="372" width="72" height="14" rx="3" fill="#f1f3f5" stroke="#ced4da" stroke-width=".5"/><text x="58" y="382" text-anchor="middle" font-size="6.5" fill="#495057">Format mandates</text>
<rect x="100" y="372" width="72" height="14" rx="3" fill="#f1f3f5" stroke="#ced4da" stroke-width=".5"/><text x="136" y="382" text-anchor="middle" font-size="6.5" fill="#495057">Privacy reqs.</text>
<rect x="22" y="394" width="102" height="14" rx="3" fill="#f1f3f5" stroke="#ced4da" stroke-width=".5"/><text x="73" y="404" text-anchor="middle" font-size="6.5" fill="#495057">Data model conformance</text>
</g>

<line x1="200" y1="220" x2="228" y2="220" stroke="#868e96" stroke-width="2.5" marker-end="url(#abig)"/>

<!-- MODEL FRAME -->
<rect x="236" y="6" width="742" height="428" rx="8" fill="none" stroke="#ced4da" stroke-width="1.2" stroke-dasharray="6,3"/>
<text x="607" y="24" text-anchor="middle" font-weight="bold" font-size="12" fill="#495057" letter-spacing="1.5">MODEL</text>

<!-- ============ DCL — compact, elbowed tree ============ -->
<g id="dcl">
<rect x="246" y="32" width="722" height="72" rx="5" fill="#dbe4ff" fill-opacity=".3" stroke="#8da0cb" stroke-width="1.2"/>
<rect x="252" y="38" width="36" height="18" rx="3" fill="#4c6ef5" fill-opacity=".15"/><text x="270" y="50" text-anchor="middle" font-weight="bold" font-size="10" fill="#4c6ef5">DCL</text>
<!-- Applicant -->
<rect x="530" y="36" width="80" height="26" rx="6" fill="#dbe4ff" fill-opacity=".85" stroke="#4c6ef5" stroke-width="1.5"/>
<text x="570" y="48" text-anchor="middle" font-weight="600" font-size="9" fill="#1c3d8f">Applicant</text>
<text x="570" y="57" text-anchor="middle" font-size="5.5" font-style="italic" fill="#748ffc">Subject</text>
<!-- Elbow connector: vertical trunk + horizontal bar + three vertical drops -->
<line x1="570" y1="62" x2="570" y2="70" stroke="#495057" stroke-width="1"/>
<line x1="380" y1="70" x2="764" y2="70" stroke="#495057" stroke-width="1"/>
<line x1="380" y1="70" x2="380" y2="78" stroke="#495057" stroke-width="1" marker-end="url(#a)"/>
<line x1="570" y1="70" x2="570" y2="78" stroke="#495057" stroke-width="1" marker-end="url(#a)"/>
<line x1="764" y1="70" x2="764" y2="78" stroke="#495057" stroke-width="1" marker-end="url(#a)"/>
<!-- Edge labels on horizontal bar -->
<text x="460" y="67" text-anchor="middle" font-size="5.5" fill="#495057">has_children</text>
<text x="510" y="67" text-anchor="middle" font-size="5.5" fill="#495057">owns_property</text>
<text x="680" y="67" text-anchor="middle" font-size="5.5" fill="#495057">earns</text>
<!-- Values -->
<rect x="336" y="80" width="88" height="20" rx="4" fill="#dbe4ff" fill-opacity=".85" stroke="#4c6ef5" stroke-width="1"/>
<text x="380" y="92" text-anchor="middle" font-size="7.5" fill="#1c3d8f">num_children</text>
<rect x="526" y="80" width="88" height="20" rx="4" fill="#dbe4ff" fill-opacity=".85" stroke="#4c6ef5" stroke-width="1"/>
<text x="570" y="92" text-anchor="middle" font-size="7.5" fill="#1c3d8f">property_area</text>
<rect x="716" y="80" width="96" height="20" rx="4" fill="#dbe4ff" fill-opacity=".85" stroke="#4c6ef5" stroke-width="1"/>
<text x="764" y="92" text-anchor="middle" font-size="7.5" fill="#1c3d8f">monthly_income</text>
</g>

<!-- ============ C1, C2, C4 constraint annotations ============ -->
<g id="constraints-dcl-csl">
<!-- C4: domain constraint arc in DCL -->
<path d="M404 100Q470 112 546 100" fill="none" stroke="#4c6ef5" stroke-width="1" stroke-dasharray="3,2"/>
<rect x="434" y="104" width="80" height="18" rx="3" fill="white" fill-opacity=".95" stroke="#4c6ef5" stroke-width=".6"/>
<text x="440" y="113" font-size="6" font-weight="700" fill="#4c6ef5">C4:</text>
<text x="456" y="113" font-size="5.5" fill="#495057">area ≥ f(children)</text>
<text x="440" y="120" font-size="4.5" fill="#868e96">cross-cred value dep.</text>

<!-- C1: entity alignment — card in DCL↔CSL gap -->
<rect x="255" y="108" width="100" height="24" rx="3" fill="white" fill-opacity=".95" stroke="#5c7cfa" stroke-width=".7"/>
<text x="261" y="118" font-size="6" font-weight="700" fill="#4c6ef5">C1:</text>
<text x="276" y="118" font-size="5.5" fill="#495057">entity alignment</text>
<text x="261" y="127" font-size="4.5" fill="#868e96">all subjects → same Applicant</text>

<!-- C2: trace consistency — card in DCL↔CSL gap -->
<rect x="255" y="134" width="100" height="24" rx="3" fill="white" fill-opacity=".95" stroke="#5c7cfa" stroke-width=".7"/>
<text x="261" y="144" font-size="6" font-weight="700" fill="#4c6ef5">C2:</text>
<text x="276" y="144" font-size="5.5" fill="#495057">trace consistency</text>
<text x="261" y="153" font-size="4.5" fill="#868e96">each Claim traces to one Prop</text>

<!-- Trace arrows DCL → CSL -->
<line x1="380" y1="104" x2="380" y2="162" stroke="#5c7cfa" stroke-width="1.5" stroke-dasharray="4,3" marker-end="url(#ab)" opacity=".6"/>
<line x1="570" y1="104" x2="570" y2="162" stroke="#5c7cfa" stroke-width="1.5" stroke-dasharray="4,3" marker-end="url(#ab)" opacity=".6"/>
<line x1="764" y1="104" x2="764" y2="162" stroke="#5c7cfa" stroke-width="1.5" stroke-dasharray="4,3" marker-end="url(#ab)" opacity=".6"/>
<!-- Alignment line -->
<line x1="360" y1="135" x2="800" y2="135" stroke="#5c7cfa" stroke-width=".6" stroke-dasharray="2,3" opacity=".25"/>
</g>

<!-- ============ CSL ============ -->
<g id="csl">
<rect x="246" y="162" width="722" height="72" rx="5" fill="#c3fae8" fill-opacity=".3" stroke="#66d9a8" stroke-width="1.2"/>
<rect x="252" y="168" width="34" height="18" rx="3" fill="#20c997" fill-opacity=".15"/><text x="269" y="180" text-anchor="middle" font-weight="bold" font-size="10" fill="#0b7285">CSL</text>
<!-- FamilyStatusCred -->
<rect x="310" y="168" width="140" height="56" rx="5" fill="#c3fae8" fill-opacity=".15" stroke="#20c997" stroke-width="1" stroke-dasharray="5,3"/>
<text x="380" y="179" text-anchor="middle" font-weight="600" font-size="7.5" fill="#0b7285">FamilyStatusCred</text>
<text x="380" y="188" text-anchor="middle" font-size="5.5" font-style="italic" fill="#868e96">Civil registry</text>
<rect x="318" y="194" width="52" height="14" rx="3" fill="#c3fae8" fill-opacity=".8" stroke="#20c997" stroke-width=".8"/><text x="344" y="204" text-anchor="middle" font-size="5.5" fill="#0b7285">CS_App₁</text>
<line x1="370" y1="201" x2="382" y2="201" stroke="#495057" stroke-width=".6" marker-end="url(#a)"/>
<rect x="384" y="194" width="52" height="14" rx="3" fill="#c3fae8" fill-opacity=".8" stroke="#20c997" stroke-width=".8"/><text x="410" y="204" text-anchor="middle" font-size="5.5" fill="#0b7285">num_ch₁</text>
<text x="380" y="221" text-anchor="middle" font-size="5.5" font-style="italic" fill="#20c997">C3 ✓</text>
<!-- PropertyCred -->
<rect x="500" y="168" width="140" height="56" rx="5" fill="#c3fae8" fill-opacity=".15" stroke="#20c997" stroke-width="1" stroke-dasharray="5,3"/>
<text x="570" y="179" text-anchor="middle" font-weight="600" font-size="7.5" fill="#0b7285">PropertyCred</text>
<text x="570" y="188" text-anchor="middle" font-size="5.5" font-style="italic" fill="#868e96">Land registry</text>
<rect x="508" y="194" width="52" height="14" rx="3" fill="#c3fae8" fill-opacity=".8" stroke="#20c997" stroke-width=".8"/><text x="534" y="204" text-anchor="middle" font-size="5.5" fill="#0b7285">CS_App₂</text>
<line x1="560" y1="201" x2="572" y2="201" stroke="#495057" stroke-width=".6" marker-end="url(#a)"/>
<rect x="574" y="194" width="52" height="14" rx="3" fill="#c3fae8" fill-opacity=".8" stroke="#20c997" stroke-width=".8"/><text x="600" y="204" text-anchor="middle" font-size="5.5" fill="#0b7285">prop_a₁</text>
<text x="570" y="221" text-anchor="middle" font-size="5.5" font-style="italic" fill="#20c997">C3 ✓</text>
<!-- IncomeCred -->
<rect x="694" y="168" width="140" height="56" rx="5" fill="#c3fae8" fill-opacity=".15" stroke="#20c997" stroke-width="1" stroke-dasharray="5,3"/>
<text x="764" y="179" text-anchor="middle" font-weight="600" font-size="7.5" fill="#0b7285">IncomeCred</text>
<text x="764" y="188" text-anchor="middle" font-size="5.5" font-style="italic" fill="#868e96">Employer</text>
<rect x="702" y="194" width="52" height="14" rx="3" fill="#c3fae8" fill-opacity=".8" stroke="#20c997" stroke-width=".8"/><text x="728" y="204" text-anchor="middle" font-size="5.5" fill="#0b7285">CS_App₃</text>
<line x1="754" y1="201" x2="766" y2="201" stroke="#495057" stroke-width=".6" marker-end="url(#a)"/>
<rect x="768" y="194" width="52" height="14" rx="3" fill="#c3fae8" fill-opacity=".8" stroke="#20c997" stroke-width=".8"/><text x="794" y="204" text-anchor="middle" font-size="5.5" fill="#0b7285">mon_inc₁</text>
<text x="764" y="221" text-anchor="middle" font-size="5.5" font-style="italic" fill="#20c997">C3 ✓</text>
</g>

<!-- ============ CSL → FSL format[1] traces ============ -->
<g id="csl-fsl-traces">
<line x1="380" y1="234" x2="380" y2="264" stroke="#e8890c" stroke-width="1.5" stroke-dasharray="4,3" marker-end="url(#ao)" opacity=".6"/>
<line x1="570" y1="234" x2="570" y2="264" stroke="#e8890c" stroke-width="1.5" stroke-dasharray="4,3" marker-end="url(#ao)" opacity=".6"/>
<line x1="764" y1="234" x2="764" y2="264" stroke="#e8890c" stroke-width="1.5" stroke-dasharray="4,3" marker-end="url(#ao)" opacity=".6"/>
<!-- format[1] pills -->
<rect x="356" y="243" width="48" height="10" rx="5" fill="white" stroke="#e8890c" stroke-width=".6"/><text x="380" y="251" text-anchor="middle" font-size="5" font-weight="600" fill="#e8890c">format[1]</text>
<rect x="546" y="243" width="48" height="10" rx="5" fill="white" stroke="#e8890c" stroke-width=".6"/><text x="570" y="251" text-anchor="middle" font-size="5" font-weight="600" fill="#e8890c">format[1]</text>
<rect x="740" y="243" width="48" height="10" rx="5" fill="white" stroke="#e03131" stroke-width=".7"/><text x="764" y="251" text-anchor="middle" font-size="5" font-weight="600" fill="#e03131">format[1]</text>
</g>

<!-- ============ FSL ============ -->
<g id="fsl">
<rect x="246" y="264" width="722" height="160" rx="5" fill="#fff3bf" fill-opacity=".3" stroke="#fcc419" stroke-width="1.2"/>
<rect x="252" y="270" width="32" height="18" rx="3" fill="#fab005" fill-opacity=".15"/><text x="268" y="282" text-anchor="middle" font-weight="bold" font-size="10" fill="#e8890c">FSL</text>

<!-- Family format -->
<rect x="340" y="272" width="80" height="28" rx="4" fill="#fff3bf" fill-opacity=".85" stroke="#fab005" stroke-width="1"/>
<text x="380" y="285" text-anchor="middle" font-weight="600" font-size="7.5" fill="#795508">SD-JWT-VC</text>
<text x="380" y="295" text-anchor="middle" font-size="5" fill="#2b8a3e">eIDAS ✓</text>

<!-- Property format -->
<rect x="530" y="272" width="80" height="28" rx="4" fill="#fff3bf" fill-opacity=".85" stroke="#fab005" stroke-width="1"/>
<text x="570" y="285" text-anchor="middle" font-weight="600" font-size="7.5" fill="#795508">SD-JWT-VC</text>
<text x="570" y="295" text-anchor="middle" font-size="5" fill="#2b8a3e">eIDAS ✓</text>

<!-- ===== C5 annotation: eIDAS mandate ===== -->
<rect x="255" y="272" width="80" height="24" rx="3" fill="white" fill-opacity=".95" stroke="#e8590c" stroke-width=".7"/>
<text x="261" y="282" font-size="6" font-weight="700" fill="#e8590c">C5:</text>
<text x="276" y="282" font-size="5.5" fill="#495057">eIDAS mandate</text>
<text x="261" y="291" font-size="4.5" fill="#868e96">EU wallets → SD-JWT-VC</text>

<!-- ===== C6 annotation: predicate proof (outside conflict zone) ===== -->
<rect x="255" y="300" width="80" height="24" rx="3" fill="white" fill-opacity=".95" stroke="#7048e8" stroke-width=".7"/>
<text x="261" y="310" font-size="6" font-weight="700" fill="#7048e8">C6:</text>
<text x="276" y="310" font-size="5.5" fill="#495057">pred proof req.</text>
<text x="261" y="319" font-size="4.5" fill="#868e96">GDPR → income needs ZKP</text>

<!-- ===== C7 annotation: VCDM conformance (outside conflict zone) ===== -->
<rect x="255" y="328" width="80" height="24" rx="3" fill="white" fill-opacity=".95" stroke="#1c7ed6" stroke-width=".7"/>
<text x="261" y="338" font-size="6" font-weight="700" fill="#1c7ed6">C7:</text>
<text x="276" y="338" font-size="5.5" fill="#495057">VCDM conform.</text>
<text x="261" y="347" font-size="4.5" fill="#868e96">W3C → AnonCreds fails</text>

<!-- ===== C9: cross-credential predicate gap ===== -->
<path d="M340 306L340 318Q340 324 346 324L457 324" fill="none" stroke="#e03131" stroke-width="1.2" stroke-dasharray="3,2"/>
<path d="M610 306L610 318Q610 324 604 324L493 324" fill="none" stroke="#e03131" stroke-width="1.2" stroke-dasharray="3,2"/>
<rect x="420" y="318" width="110" height="28" rx="3" fill="white" fill-opacity=".95" stroke="#e03131" stroke-width=".7"/>
<text x="426" y="329" font-size="6.5" font-weight="700" fill="#e03131">C9:</text>
<text x="442" y="329" font-size="5.5" fill="#495057">cross-credential predicate gap</text>
<text x="426" y="339" font-size="4.5" fill="#868e96">requires cross-cred ZKP; no format supports it</text>

<!-- ===== CONFLICT ZONE (compact — C8 only) ===== -->
<rect x="690" y="268" width="186" height="104" rx="5" fill="#ffc9c9" fill-opacity=".3" stroke="#e03131" stroke-width="1.5" stroke-dasharray="5,3"/>
<rect x="690" y="268" width="186" height="104" rx="5" fill="url(#hatch)" opacity=".15"/>

<rect x="698" y="276" width="82" height="40" rx="4" fill="#fff3bf" fill-opacity=".9" stroke="#fab005" stroke-width=".9"/>
<text x="739" y="289" text-anchor="middle" font-weight="600" font-size="7" fill="#795508">SD-JWT-VC</text>
<text x="739" y="299" text-anchor="middle" font-size="5" fill="#2b8a3e">eIDAS ✓ W3C ✓</text>
<text x="739" y="309" text-anchor="middle" font-size="5.5" font-weight="bold" fill="#e03131">pred ✗</text>

<rect x="788" y="276" width="82" height="40" rx="4" fill="#fff3bf" fill-opacity=".9" stroke="#fab005" stroke-width=".9"/>
<text x="829" y="289" text-anchor="middle" font-weight="600" font-size="7" fill="#795508">AnonCreds</text>
<text x="829" y="299" text-anchor="middle" font-size="5" fill="#2b8a3e">pred ✓</text>
<text x="829" y="309" text-anchor="middle" font-size="5.5" font-weight="bold" fill="#e03131">eIDAS ✗ W3C ✗</text>

<!-- C8 label -->
<rect x="698" y="322" width="170" height="28" rx="3" fill="white" fill-opacity=".95" stroke="#e03131" stroke-width=".7"/>
<text x="704" y="333" font-size="6.5" font-weight="700" fill="#e03131">C8:</text>
<text x="720" y="333" font-size="5.5" fill="#495057">governance conflict</text>
<text x="704" y="343" font-size="4.5" fill="#868e96">C5∧C6∧C7 jointly unsatisfiable on IncomeCred</text>

<!-- Governance source badges -->
<rect x="700" y="356" width="26" height="10" rx="2" fill="#e8590c" fill-opacity=".12" stroke="#e8590c" stroke-width=".5"/><text x="713" y="363" text-anchor="middle" font-size="4.5" font-weight="bold" fill="#e8590c">eIDAS</text>
<rect x="730" y="356" width="24" height="10" rx="2" fill="#7048e8" fill-opacity=".12" stroke="#7048e8" stroke-width=".5"/><text x="742" y="363" text-anchor="middle" font-size="4.5" font-weight="bold" fill="#7048e8">GDPR</text>
<rect x="758" y="356" width="22" height="10" rx="2" fill="#1c7ed6" fill-opacity=".12" stroke="#1c7ed6" stroke-width=".5"/><text x="769" y="363" text-anchor="middle" font-size="4.5" font-weight="bold" fill="#1c7ed6">W3C</text>
</g>

<line x1="982" y1="220" x2="1010" y2="220" stroke="#868e96" stroke-width="2.5" marker-end="url(#abig)"/>

<!-- RESULT PANEL (same as v11) -->
<g id="result">
<rect x="1016" y="6" width="278" height="428" rx="8" fill="#f1f3f5" stroke="#ced4da" stroke-width="1.2"/>
<text x="1155" y="26" text-anchor="middle" font-weight="bold" font-size="12" fill="#495057" letter-spacing="1.5">RESULT</text>
<line x1="1030" y1="33" x2="1280" y2="33" stroke="#dee2e6" stroke-width=".8"/>
<rect x="1026" y="42" width="258" height="108" rx="5" fill="white" stroke="#adb5bd" stroke-width=".8"/>
<circle cx="1042" cy="58" r="10" fill="#fcc419" fill-opacity=".25" stroke="#e8890c" stroke-width="1.2"/><text x="1042" y="62" text-anchor="middle" font-weight="bold" font-size="10" fill="#e8890c">1</text>
<text x="1066" y="62" font-weight="bold" font-size="11" fill="#343a40">VERIFY</text>
<rect x="1034" y="72" width="118" height="34" rx="3" fill="#d3f9d8" fill-opacity=".4" stroke="#2b8a3e" stroke-width=".6"/><text x="1040" y="86" font-weight="bold" font-size="10" fill="#2b8a3e">SAT</text><text x="1040" y="98" font-size="6.5" fill="#2b8a3e">design is consistent</text>
<rect x="1034" y="110" width="118" height="34" rx="3" fill="#ffc9c9" fill-opacity=".4" stroke="#e03131" stroke-width=".6"/><text x="1040" y="124" font-weight="bold" font-size="10" fill="#e03131">UNSAT</text><text x="1040" y="136" font-size="6.5" fill="#e03131">constraints conflict</text>
<rect x="1158" y="72" width="118" height="34" rx="3" fill="#fafafa" stroke="#dee2e6" stroke-width=".5" stroke-dasharray="2,2"/>
<circle cx="1176" cy="86" r="5" fill="#dbe4ff" stroke="#4c6ef5" stroke-width=".5"/><text x="1176" y="89" text-anchor="middle" font-size="3.5" fill="#1c3d8f">S</text>
<rect x="1190" y="79" width="24" height="7" rx="2" fill="#c3fae8" stroke="#20c997" stroke-width=".4"/><rect x="1190" y="89" width="24" height="7" rx="2" fill="#c3fae8" stroke="#20c997" stroke-width=".4"/><rect x="1220" y="79" width="24" height="7" rx="2" fill="#c3fae8" stroke="#20c997" stroke-width=".4"/>
<rect x="1248" y="79" width="18" height="7" rx="2" fill="#d3f9d8" stroke="#2b8a3e" stroke-width=".4"/><rect x="1248" y="89" width="18" height="7" rx="2" fill="#d3f9d8" stroke="#2b8a3e" stroke-width=".4"/>
<line x1="1181" y1="84" x2="1190" y2="82" stroke="#868e96" stroke-width=".3"/><line x1="1181" y1="88" x2="1190" y2="92" stroke="#868e96" stroke-width=".3"/><line x1="1181" y1="86" x2="1220" y2="82" stroke="#868e96" stroke-width=".3"/>
<text x="1216" y="102" text-anchor="middle" font-size="5" fill="#2b8a3e">✓ model found</text>
<rect x="1158" y="110" width="118" height="34" rx="3" fill="#fafafa" stroke="#dee2e6" stroke-width=".5" stroke-dasharray="2,2"/>
<circle cx="1176" cy="124" r="5" fill="#dbe4ff" stroke="#4c6ef5" stroke-width=".5"/><text x="1176" y="127" text-anchor="middle" font-size="3.5" fill="#1c3d8f">S</text>
<rect x="1190" y="117" width="24" height="7" rx="2" fill="#c3fae8" stroke="#20c997" stroke-width=".4"/><rect x="1190" y="127" width="24" height="7" rx="2" fill="#c3fae8" stroke="#20c997" stroke-width=".4"/><rect x="1220" y="117" width="24" height="7" rx="2" fill="#ffc9c9" stroke="#e03131" stroke-width=".6"/>
<rect x="1248" y="117" width="18" height="7" rx="2" fill="#ffc9c9" stroke="#e03131" stroke-width=".5" stroke-dasharray="2,1"/><rect x="1248" y="127" width="18" height="7" rx="2" fill="#ffc9c9" stroke="#e03131" stroke-width=".5" stroke-dasharray="2,1"/>
<line x1="1181" y1="122" x2="1190" y2="120" stroke="#868e96" stroke-width=".3"/><line x1="1181" y1="126" x2="1190" y2="130" stroke="#868e96" stroke-width=".3"/><line x1="1181" y1="124" x2="1220" y2="120" stroke="#e03131" stroke-width=".4"/>
<text x="1216" y="140" text-anchor="middle" font-size="5" fill="#e03131">✗ no model</text>
<rect x="1026" y="160" width="258" height="120" rx="5" fill="white" stroke="#adb5bd" stroke-width=".8"/>
<circle cx="1042" cy="176" r="10" fill="#e03131" fill-opacity=".12" stroke="#e03131" stroke-width="1.2"/><text x="1042" y="180" text-anchor="middle" font-weight="bold" font-size="10" fill="#e03131">2</text>
<text x="1066" y="180" font-weight="bold" font-size="11" fill="#343a40">IDENTIFY ERRORS</text>
<rect x="1034" y="192" width="124" height="14" rx="2" fill="#ffc9c9" fill-opacity=".2"/><text x="1038" y="202" font-size="7" fill="#c92a2a" font-weight="600">▸ governance_conflict</text><text x="1044" y="214" font-size="6.5" fill="#868e96">(IncomeCred)</text>
<rect x="1034" y="222" width="124" height="14" rx="2" fill="#ffc9c9" fill-opacity=".2"/><text x="1038" y="232" font-size="7" fill="#c92a2a" font-weight="600">▸ cross_cred_pred_gap</text><text x="1044" y="244" font-size="6.5" fill="#868e96">(area, children)</text>
<rect x="1164" y="192" width="112" height="80" rx="3" fill="#fafafa" stroke="#dee2e6" stroke-width=".5" stroke-dasharray="2,2"/>
<circle cx="1184" cy="216" r="6" fill="#dbe4ff" stroke="#4c6ef5" stroke-width=".5"/><text x="1184" y="219" text-anchor="middle" font-size="4" fill="#1c3d8f">App</text>
<rect x="1200" y="204" width="28" height="8" rx="2" fill="#c3fae8" stroke="#20c997" stroke-width=".4"/><text x="1214" y="211" text-anchor="middle" font-size="3.5" fill="#0b7285">Fam</text>
<rect x="1200" y="216" width="28" height="8" rx="2" fill="#c3fae8" stroke="#20c997" stroke-width=".4"/><text x="1214" y="223" text-anchor="middle" font-size="3.5" fill="#0b7285">Prop</text>
<rect x="1200" y="228" width="28" height="8" rx="2" fill="#ffc9c9" stroke="#e03131" stroke-width=".8"/><text x="1214" y="235" text-anchor="middle" font-size="3.5" font-weight="bold" fill="#c92a2a">Inc</text>
<rect x="1236" y="204" width="24" height="8" rx="2" fill="#fff3bf" stroke="#fab005" stroke-width=".3"/><rect x="1236" y="216" width="24" height="8" rx="2" fill="#fff3bf" stroke="#fab005" stroke-width=".3"/>
<rect x="1236" y="228" width="24" height="8" rx="2" fill="#ffc9c9" stroke="#e03131" stroke-width=".6"/><text x="1248" y="234" text-anchor="middle" font-size="3" font-weight="bold" fill="#c92a2a">C8✗</text>
<line x1="1190" y1="213" x2="1200" y2="208" stroke="#868e96" stroke-width=".3"/><line x1="1190" y1="218" x2="1200" y2="220" stroke="#868e96" stroke-width=".3"/><line x1="1190" y1="216" x2="1200" y2="232" stroke="#e03131" stroke-width=".4"/>
<line x1="1228" y1="208" x2="1236" y2="208" stroke="#868e96" stroke-width=".3"/><line x1="1228" y1="220" x2="1236" y2="220" stroke="#868e96" stroke-width=".3"/><line x1="1228" y1="232" x2="1236" y2="232" stroke="#e03131" stroke-width=".4"/>
<path d="M1206 242L1206 248 1236 248" fill="none" stroke="#e03131" stroke-width=".6" stroke-dasharray="2,1"/><text x="1221" y="257" text-anchor="middle" font-size="3.5" fill="#e03131">C9 gap</text>
<rect x="1026" y="290" width="258" height="138" rx="5" fill="white" stroke="#adb5bd" stroke-width=".8"/>
<circle cx="1042" cy="306" r="10" fill="#2b8a3e" fill-opacity=".12" stroke="#2b8a3e" stroke-width="1.2"/><text x="1042" y="310" text-anchor="middle" font-weight="bold" font-size="10" fill="#2b8a3e">3</text>
<text x="1066" y="310" font-weight="bold" font-size="11" fill="#343a40">GENERATE</text>
<rect x="1034" y="320" width="242" height="14" rx="3" fill="#d3f9d8" fill-opacity=".35" stroke="#2b8a3e" stroke-width=".5"/><text x="1155" y="330" text-anchor="middle" font-size="6.5" fill="#2b8a3e" font-weight="600">Relax C6 (GDPR) → 2 valid configurations</text>
<rect x="1034" y="340" width="117" height="80" rx="3" fill="#fafafa" stroke="#dee2e6" stroke-width=".6" stroke-dasharray="3,2"/>
<text x="1092" y="352" text-anchor="middle" font-size="6.5" font-weight="600" fill="#2b8a3e">Config A</text>
<circle cx="1052" cy="370" r="5.5" fill="#dbe4ff" stroke="#4c6ef5" stroke-width=".5"/><text x="1052" y="373" text-anchor="middle" font-size="3.5" fill="#1c3d8f">App</text>
<rect x="1066" y="362" width="32" height="8" rx="2" fill="#c3fae8" stroke="#20c997" stroke-width=".4"/><text x="1082" y="369" text-anchor="middle" font-size="3.5" fill="#0b7285">Fam</text>
<rect x="1066" y="374" width="32" height="8" rx="2" fill="#c3fae8" stroke="#20c997" stroke-width=".4"/><text x="1082" y="381" text-anchor="middle" font-size="3.5" fill="#0b7285">Prop</text>
<rect x="1066" y="386" width="32" height="8" rx="2" fill="#c3fae8" stroke="#20c997" stroke-width=".4"/><text x="1082" y="393" text-anchor="middle" font-size="3.5" fill="#0b7285">Inc</text>
<rect x="1104" y="362" width="36" height="8" rx="2" fill="#fff3bf" stroke="#fab005" stroke-width=".4"/><text x="1122" y="369" text-anchor="middle" font-size="3" fill="#795508">SD-JWT</text>
<rect x="1104" y="374" width="36" height="8" rx="2" fill="#fff3bf" stroke="#fab005" stroke-width=".4"/><text x="1122" y="381" text-anchor="middle" font-size="3" fill="#795508">SD-JWT</text>
<rect x="1104" y="386" width="36" height="8" rx="2" fill="#fff3bf" stroke="#fab005" stroke-width=".4"/><text x="1122" y="393" text-anchor="middle" font-size="3" fill="#795508">SD-JWT</text>
<line x1="1057" y1="367" x2="1066" y2="366" stroke="#868e96" stroke-width=".3"/><line x1="1057" y1="372" x2="1066" y2="378" stroke="#868e96" stroke-width=".3"/><line x1="1057" y1="372" x2="1066" y2="390" stroke="#868e96" stroke-width=".3"/>
<text x="1092" y="410" text-anchor="middle" font-size="6" fill="#2b8a3e">✓ all SD-JWT-VC</text>
<rect x="1159" y="340" width="117" height="80" rx="3" fill="#fafafa" stroke="#dee2e6" stroke-width=".6" stroke-dasharray="3,2"/>
<text x="1217" y="352" text-anchor="middle" font-size="6.5" font-weight="600" fill="#2b8a3e">Config B</text>
<circle cx="1177" cy="370" r="5.5" fill="#dbe4ff" stroke="#4c6ef5" stroke-width=".5"/><text x="1177" y="373" text-anchor="middle" font-size="3.5" fill="#1c3d8f">App</text>
<rect x="1191" y="362" width="32" height="8" rx="2" fill="#c3fae8" stroke="#20c997" stroke-width=".4"/><text x="1207" y="369" text-anchor="middle" font-size="3.5" fill="#0b7285">Fam</text>
<rect x="1191" y="374" width="32" height="8" rx="2" fill="#c3fae8" stroke="#20c997" stroke-width=".4"/><text x="1207" y="381" text-anchor="middle" font-size="3.5" fill="#0b7285">Prop</text>
<rect x="1191" y="386" width="32" height="8" rx="2" fill="#c3fae8" stroke="#20c997" stroke-width=".4"/><text x="1207" y="393" text-anchor="middle" font-size="3.5" fill="#0b7285">Inc</text>
<rect x="1229" y="362" width="36" height="8" rx="2" fill="#fff3bf" stroke="#fab005" stroke-width=".4"/><text x="1247" y="369" text-anchor="middle" font-size="3" fill="#795508">SD-JWT</text>
<rect x="1229" y="374" width="36" height="8" rx="2" fill="#e4d8fd" stroke="#7048e8" stroke-width=".5"/><text x="1247" y="381" text-anchor="middle" font-size="3" font-weight="600" fill="#7048e8">mdoc</text>
<rect x="1229" y="386" width="36" height="8" rx="2" fill="#fff3bf" stroke="#fab005" stroke-width=".4"/><text x="1247" y="393" text-anchor="middle" font-size="3" fill="#795508">SD-JWT</text>
<line x1="1182" y1="367" x2="1191" y2="366" stroke="#868e96" stroke-width=".3"/><line x1="1182" y1="372" x2="1191" y2="378" stroke="#868e96" stroke-width=".3"/><line x1="1182" y1="372" x2="1191" y2="390" stroke="#868e96" stroke-width=".3"/>
<text x="1217" y="410" text-anchor="middle" font-size="6" fill="#2b8a3e">✓ Prop → mdoc</text>
</g>
</svg>
